<svg xmlns="http://www.w3.org/2000/svg" xmlns:xlink="http://www.w3.org/1999/xlink" width="500" zoomAndPan="magnify" viewBox="0 0 375 374.999991" height="500" preserveAspectRatio="xMidYMid meet" version="1.0"><defs><clipPath id="6d217bd870"><path d="M 7.238281 96 L 367.988281 96 L 367.988281 155 L 7.238281 155 Z M 7.238281 96 " clip-rule="nonzero"/></clipPath></defs><path fill="#000000" d="M 51.632812 235.265625 L 53.507812 225.425781 L 53.890625 225 C 105.921875 167.703125 16.4375 154.378906 16.1875 154.34375 L 14.246094 154.039062 L 15.480469 141.269531 L 51.460938 110.109375 L 74.007812 113.453125 L 97.625 137.453125 L 138.429688 110.09375 L 159.800781 114.734375 L 187.332031 139.015625 L 225.015625 110.785156 L 240.511719 112.492188 L 270.671875 138.105469 L 278.25 135.519531 L 313.425781 107.011719 C 319.914062 110.902344 326.410156 114.777344 332.902344 118.660156 C 341.800781 126.09375 350.691406 133.527344 359.582031 140.953125 L 360.914062 154.054688 L 358.976562 154.355469 C 358.714844 154.390625 269.238281 167.71875 321.269531 225.015625 L 321.820312 225.621094 L 321.585938 235.113281 C 306.0625 247.59375 290.523438 260.070312 275 272.558594 L 229.738281 240.703125 L 188.535156 272.871094 L 143.527344 240.667969 L 100.125 270.984375 L 65.003906 244.808594 L 51.359375 236.699219 Z M 51.632812 235.265625 " fill-opacity="1" fill-rule="evenodd"/><path fill="#a24091" d="M 283.625 326.214844 C 282.007812 326.890625 280.378906 327.546875 278.742188 328.1875 C 250.382812 339.136719 217.769531 342.96875 187.570312 335.84375 C 157.371094 342.96875 124.75 339.136719 96.398438 328.1875 C 94.71875 327.539062 93.050781 326.863281 91.402344 326.171875 L 104.417969 327.53125 C 104.472656 327.554688 104.566406 327.582031 104.675781 327.605469 C 106.542969 328.078125 112.636719 328.9375 118.714844 328.433594 C 124.503906 327.941406 130.230469 326.207031 131.753906 321.640625 C 131.804688 321.480469 131.851562 321.308594 131.902344 321.144531 L 132.234375 319.851562 L 133.527344 320.226562 C 133.605469 320.25 160.59375 328.238281 163.457031 314.292969 L 163.875 312.253906 L 165.527344 313.535156 C 171.460938 318.140625 179.5 320.445312 187.5625 320.445312 C 195.617188 320.445312 203.664062 318.140625 209.597656 313.535156 L 211.25 312.253906 L 211.667969 314.292969 C 214.53125 328.238281 241.527344 320.25 241.601562 320.226562 L 242.882812 319.851562 L 243.222656 321.144531 C 243.265625 321.308594 243.308594 321.480469 243.367188 321.640625 C 244.886719 326.207031 250.613281 327.941406 256.402344 328.433594 C 262.488281 328.941406 268.582031 328.078125 270.449219 327.605469 C 270.558594 327.582031 270.644531 327.554688 270.710938 327.53125 Z M 283.625 326.214844 " fill-opacity="1" fill-rule="evenodd"/><path fill="#b369a6" d="M 324.507812 300.988281 C 313.027344 311.09375 298.996094 319.730469 283.566406 326.242188 C 279.507812 327.695312 275.4375 329.007812 271.617188 330.21875 C 271.496094 330.261719 271.34375 330.304688 271.171875 330.347656 C 269.160156 330.859375 262.625 331.789062 256.1875 331.25 C 249.726562 330.699219 243.28125 328.667969 240.972656 323.316406 C 235.28125 324.757812 214.351562 329.117188 209.546875 317.066406 C 203.332031 321.207031 195.445312 323.273438 187.585938 323.273438 C 179.726562 323.273438 171.835938 321.199219 165.613281 317.066406 C 160.8125 329.117188 139.886719 324.757812 134.191406 323.316406 C 131.890625 328.667969 125.441406 330.699219 118.976562 331.25 C 112.542969 331.796875 106.011719 330.859375 103.992188 330.347656 C 103.824219 330.304688 103.675781 330.261719 103.542969 330.21875 C 100.261719 329.179688 96.789062 328.109375 93.285156 326.941406 C 77.1875 320.351562 62.558594 311.460938 50.660156 300.988281 C 50.761719 300.703125 50.820312 300.464844 50.695312 300.347656 C 53.171875 297.761719 52.167969 297.53125 53.878906 299.015625 C 56.292969 300.9375 60.683594 303.332031 65.804688 305.230469 C 70.546875 306.988281 75.882812 308.308594 80.792969 308.394531 C 85.503906 308.480469 89.808594 307.4375 92.726562 304.539062 C 93.917969 303.367188 94.890625 301.882812 95.589844 300.039062 L 96.816406 296.78125 L 98.433594 299.875 C 99.304688 301.542969 101.84375 303.101562 105.367188 304.347656 C 110.132812 306.03125 116.53125 307.039062 123.0625 306.953125 C 129.554688 306.867188 136.164062 305.691406 141.386719 303.011719 C 145.574219 300.867188 148.871094 297.742188 150.429688 293.417969 L 151.132812 291.445312 L 152.820312 292.707031 C 158.519531 296.949219 164.292969 300.125 170.105469 302.25 C 175.925781 304.367188 181.773438 305.425781 187.605469 305.425781 C 193.441406 305.425781 199.28125 304.359375 205.09375 302.242188 C 210.902344 300.117188 216.671875 296.933594 222.363281 292.707031 L 224.050781 291.445312 L 224.761719 293.417969 C 226.320312 297.742188 229.609375 300.867188 233.804688 303.011719 C 239.027344 305.691406 245.628906 306.867188 252.128906 306.953125 C 258.652344 307.039062 265.046875 306.039062 269.820312 304.347656 C 273.347656 303.101562 275.886719 301.542969 276.757812 299.875 L 278.367188 296.78125 L 279.601562 300.039062 C 280.292969 301.882812 281.265625 303.367188 282.457031 304.539062 C 285.382812 307.4375 289.679688 308.488281 294.390625 308.394531 C 299.300781 308.308594 304.636719 306.988281 309.386719 305.230469 C 314.507812 303.332031 318.898438 300.9375 321.304688 299.015625 C 323.128906 297.425781 323.605469 298.765625 324.507812 300.988281 Z M 324.507812 300.988281 " fill-opacity="1" fill-rule="evenodd"/><path fill="#c77abb" d="M 345.441406 276.253906 C 339.902344 285.617188 332.265625 294.363281 323.101562 302.199219 C 320.167969 304.136719 315.402344 306.285156 310.445312 308.121094 C 305.40625 309.984375 299.71875 311.382812 294.417969 311.476562 C 288.917969 311.570312 283.824219 310.289062 280.226562 306.722656 C 279.289062 305.792969 278.460938 304.714844 277.753906 303.460938 C 275.570312 303.65625 273.746094 306.226562 270.847656 307.25 C 265.761719 309.050781 258.984375 310.121094 252.070312 310.023438 C 245.125 309.929688 238.03125 308.652344 232.355469 305.742188 C 228.109375 303.566406 224.640625 300.492188 222.597656 296.320312 C 217.175781 300.175781 211.675781 303.105469 206.144531 305.132812 C 200 307.371094 193.800781 308.496094 187.585938 308.496094 C 181.367188 308.503906 175.160156 307.378906 169.011719 305.136719 C 163.472656 303.113281 157.96875 300.183594 152.539062 296.320312 C 150.492188 300.492188 147.039062 303.566406 142.785156 305.742188 C 137.109375 308.644531 130.015625 309.921875 123.070312 310.023438 C 116.15625 310.121094 109.371094 309.050781 104.292969 307.25 C 101.394531 306.226562 99.554688 304.417969 97.386719 303.460938 C 96.679688 304.714844 95.851562 305.792969 94.914062 306.722656 C 91.320312 310.289062 86.222656 311.570312 80.730469 311.476562 C 75.429688 311.382812 69.734375 309.984375 64.699219 308.121094 C 60.453125 306.542969 56.113281 304.734375 53.019531 303.027344 C 43.429688 294.988281 35.453125 285.957031 29.714844 276.277344 C 32.46875 270.15625 37.457031 263.398438 44.84375 257.46875 C 50.453125 252.960938 55.800781 249.632812 59.472656 249.613281 C 67.308594 249.582031 74.628906 256.980469 81.933594 264.371094 C 88.71875 271.226562 95.496094 278.085938 101.929688 278.164062 C 108.410156 278.25 115.382812 271.464844 122.363281 264.679688 C 129.777344 257.476562 137.1875 250.269531 144.949219 250.269531 C 152.722656 250.269531 160.011719 257.484375 167.308594 264.695312 C 174.179688 271.488281 181.042969 278.277344 187.554688 278.222656 L 187.578125 278.222656 C 194.082031 278.273438 200.953125 271.488281 207.824219 264.695312 C 215.121094 257.484375 222.417969 250.269531 230.179688 250.269531 C 237.9375 250.269531 245.355469 257.476562 252.769531 264.679688 C 259.75 271.464844 266.730469 278.242188 273.203125 278.164062 C 279.628906 278.085938 286.414062 271.226562 293.199219 264.371094 C 300.511719 256.980469 307.824219 249.582031 315.660156 249.613281 C 319.324219 249.625 324.671875 252.960938 330.289062 257.46875 C 335.207031 261.410156 340.3125 264.074219 345.441406 276.253906 Z M 345.441406 276.253906 " fill-opacity="1" fill-rule="evenodd"/><path fill="#b369a6" d="M 46.421875 78.484375 C 59.328125 68.011719 74.472656 58.871094 90.246094 51.761719 C 93.527344 50.285156 97.082031 48.792969 100.398438 47.496094 C 114.742188 44.105469 155.683594 31.808594 157.449219 56.148438 C 162.988281 54.585938 180.90625 50.429688 187.578125 59.984375 C 194.246094 50.429688 212.164062 54.585938 217.703125 56.148438 C 219.355469 33.359375 260.789062 43.519531 274.746094 47.496094 C 278.105469 48.808594 281.589844 50.261719 284.90625 51.761719 C 300.921875 58.976562 316.296875 68.289062 329.324219 78.964844 L 326.355469 80.867188 C 326.195312 80.75 273.347656 40.171875 252.796875 85.988281 L 252.140625 87.449219 L 250.84375 86.5 C 250.742188 86.425781 214.976562 59.710938 188.492188 86.425781 L 187.570312 87.363281 L 186.648438 86.425781 C 160.15625 59.710938 124.398438 86.425781 124.289062 86.5 L 122.992188 87.449219 L 122.335938 85.988281 C 101.800781 40.171875 48.9375 80.75 48.785156 80.867188 Z M 46.421875 78.484375 " fill-opacity="1" fill-rule="evenodd"/><path fill="#c77abb" d="M 10.367188 126.453125 C 10.527344 125.949219 10.726562 125.335938 10.867188 124.925781 C 12.105469 121.222656 13.699219 117.578125 15.609375 114 C 22.988281 100.15625 35.152344 87.082031 49.902344 75.722656 C 63.367188 67.09375 105.339844 44.390625 124.152344 83.144531 C 131.414062 78.332031 162.835938 59.886719 187.585938 83.351562 C 212.316406 59.886719 243.734375 78.316406 251.003906 83.144531 C 264.78125 54.777344 290.53125 59.382812 308.542969 67.3125 C 315.207031 70.242188 321.550781 73.664062 325.597656 75.984375 C 340.191406 87.277344 352.226562 100.257812 359.550781 114 C 361.457031 117.570312 363.050781 121.222656 364.296875 124.925781 C 364.449219 125.371094 364.636719 125.90625 364.808594 126.460938 C 360.46875 131.0625 367.917969 131.875 357.9375 127.273438 C 356.328125 126.539062 354.929688 125.882812 354.554688 125.710938 C 347.898438 122.554688 341.273438 116.988281 335.027344 111.765625 C 327.527344 105.484375 320.621094 99.703125 315.660156 99.671875 C 309.136719 99.652344 302.277344 106.582031 295.425781 113.507812 C 288.1875 120.820312 280.96875 128.125 273.253906 128.226562 C 265.480469 128.320312 258.046875 121.09375 250.597656 113.855469 C 243.648438 107.097656 236.6875 100.335938 230.191406 100.335938 C 223.703125 100.335938 216.867188 107.097656 210.03125 113.855469 C 202.710938 121.09375 195.394531 128.332031 187.589844 128.28125 L 187.570312 128.28125 C 179.769531 128.332031 172.449219 121.09375 165.128906 113.855469 C 158.289062 107.09375 151.460938 100.335938 144.960938 100.335938 C 138.472656 100.335938 131.507812 107.105469 124.5625 113.855469 C 117.113281 121.085938 109.679688 128.320312 101.90625 128.226562 C 94.183594 128.125 86.960938 120.820312 79.734375 113.507812 C 72.882812 106.582031 66.019531 99.644531 59.5 99.671875 C 54.539062 99.695312 47.640625 105.476562 40.132812 111.765625 C 29.355469 120.796875 16.015625 131.957031 10.367188 126.453125 Z M 10.367188 126.453125 " fill-opacity="1" fill-rule="evenodd"/><path fill="#a24091" d="M 100.398438 47.496094 C 129.34375 36.230469 159.304688 32.074219 180.71875 39.132812 C 183.121094 39.933594 185.421875 40.855469 187.578125 41.921875 C 189.734375 40.855469 192.027344 39.925781 194.433594 39.132812 C 215.851562 32.074219 245.8125 36.230469 274.746094 47.496094 L 255.21875 44.484375 C 255.121094 44.472656 219.746094 38.816406 220.25 57.839844 L 220.300781 59.667969 L 218.546875 59.09375 C 218.476562 59.070312 194.140625 50.902344 188.761719 63.125 L 187.578125 65.828125 L 186.386719 63.125 C 181 50.894531 156.671875 59.0625 156.601562 59.09375 L 154.847656 59.667969 L 154.898438 57.839844 C 155.394531 38.816406 120.027344 44.464844 119.925781 44.484375 Z M 100.398438 47.496094 " fill-opacity="1" fill-rule="evenodd"/><path fill="#9e4d90" d="M 189.660156 61.519531 L 189.660156 81.5 C 187.109375 87.304688 187.734375 86.125 185.5 81.5 L 185.5 61.519531 C 187.527344 60.8125 187.496094 61.03125 189.660156 61.519531 Z M 189.660156 61.519531 " fill-opacity="1" fill-rule="evenodd"/><path fill="#be59ad" d="M 185.5 81.5 C 186.191406 82.089844 186.890625 82.710938 187.585938 83.367188 C 188.277344 82.710938 188.960938 82.089844 189.667969 81.5 L 189.667969 128.136719 C 188.976562 128.238281 188.292969 128.296875 187.597656 128.296875 L 187.578125 128.296875 C 186.886719 128.296875 186.191406 128.246094 185.507812 128.136719 L 185.507812 81.5 Z M 185.5 81.5 " fill-opacity="1" fill-rule="evenodd"/><path fill="#8a2d79" d="M 189.660156 61.519531 C 189.324219 62.011719 189.027344 62.542969 188.765625 63.125 L 187.578125 65.828125 L 186.386719 63.125 C 186.128906 62.542969 185.832031 62.011719 185.492188 61.519531 L 185.492188 46.273438 L 186.308594 43.398438 L 187.570312 42.238281 L 188.855469 43.382812 L 189.652344 46.316406 L 189.652344 61.519531 Z M 189.660156 61.519531 " fill-opacity="1" fill-rule="evenodd"/><path fill="#9e4d90" d="M 220.292969 56.269531 C 233.507812 64.054688 243.792969 73.175781 251.535156 82.070312 C 251.339844 86.859375 249.933594 83.582031 242.300781 78.230469 C 235.144531 71.222656 226.140625 64.183594 215.28125 58.15625 C 215.433594 55.382812 218.53125 56.152344 220.292969 56.269531 Z M 220.292969 56.269531 " fill-opacity="1" fill-rule="evenodd"/><path fill="#9e4d90" d="M 159.867188 58.15625 C 148.941406 64.214844 140.015625 71.1875 132.855469 78.230469 C 119.515625 88.550781 125.679688 89.734375 123.613281 82.070312 C 131.363281 73.167969 141.632812 64.078125 154.863281 56.269531 C 157.6875 56.082031 157.355469 55.792969 159.867188 58.15625 Z M 159.867188 58.15625 " fill-opacity="1" fill-rule="evenodd"/><path fill="#be59ad" d="M 123.613281 82.070312 C 123.800781 82.429688 123.980469 82.789062 124.152344 83.148438 C 125.855469 82.027344 128.890625 80.148438 132.855469 78.230469 C 108.886719 101.847656 103.976562 126.992188 103.957031 127.101562 L 103.746094 128.117188 C 103.132812 128.195312 102.519531 128.238281 101.90625 128.230469 C 101.113281 128.21875 100.328125 128.132812 99.542969 127.980469 L 99.886719 126.28125 C 99.910156 126.171875 104.164062 104.464844 123.613281 82.070312 Z M 242.300781 78.230469 C 246.257812 80.140625 249.285156 82.019531 250.996094 83.148438 C 251.175781 82.777344 251.355469 82.421875 251.542969 82.070312 C 271.003906 104.46875 275.246094 126.171875 275.273438 126.28125 L 275.621094 127.980469 C 274.832031 128.132812 274.046875 128.21875 273.253906 128.230469 C 272.632812 128.238281 272.027344 128.195312 271.414062 128.117188 L 271.207031 127.101562 C 271.179688 126.992188 266.265625 101.839844 242.300781 78.230469 Z M 242.300781 78.230469 " fill-opacity="1" fill-rule="evenodd"/><path fill="#8a2d79" d="M 220.292969 56.269531 C 220.25 56.773438 220.234375 57.300781 220.25 57.839844 L 220.300781 59.667969 L 218.546875 59.09375 C 218.53125 59.085938 217.277344 58.667969 215.28125 58.15625 C 207.226562 53.683594 198.046875 49.671875 187.578125 46.402344 C 177.109375 49.671875 167.929688 53.683594 159.867188 58.15625 C 157.875 58.667969 156.613281 59.085938 156.609375 59.09375 L 154.855469 59.667969 L 154.90625 57.839844 C 154.921875 57.300781 154.90625 56.773438 154.863281 56.269531 C 159.648438 53.445312 183.4375 41.929688 187.578125 41.929688 C 191.714844 41.929688 215.488281 53.445312 220.292969 56.269531 Z M 220.292969 56.269531 " fill-opacity="1" fill-rule="evenodd"/><path fill="#8a2d79" d="M 150.730469 325.226562 C 159.425781 327.652344 169.097656 329.605469 179.445312 330.835938 C 173.925781 326.867188 169.152344 322.539062 165.128906 318.109375 C 165.128906 313.207031 167.792969 316.9375 173.957031 321.097656 C 177.90625 324.6875 182.457031 328.152344 187.585938 331.3125 C 192.625 328.203125 197.304688 324.621094 201.207031 321.097656 C 208.265625 317.175781 210.925781 312.519531 210.03125 318.109375 C 206 322.539062 201.234375 326.863281 195.71875 330.835938 C 206.035156 329.613281 215.757812 327.640625 224.429688 325.226562 C 235.890625 324.742188 244.015625 318.140625 241.28125 323.953125 C 226.414062 329.628906 202.019531 335.835938 187.589844 335.835938 C 173.207031 335.851562 148.742188 329.613281 133.894531 323.953125 C 132.25 319.851562 141.089844 323.699219 150.730469 325.226562 Z M 150.730469 325.226562 " fill-opacity="1" fill-rule="evenodd"/><path fill="#9e4d90" d="M 150.730469 325.226562 C 144.023438 325.558594 137.09375 324.050781 134.175781 323.316406 C 134.089844 323.535156 133.980469 323.75 133.871094 323.953125 C 119.234375 318.246094 107.207031 311.039062 97.394531 303.460938 C 103.457031 304.257812 105.5 306.832031 113.386719 309.410156 C 123.792969 315.597656 136.203125 321.164062 150.730469 325.226562 Z M 150.730469 325.226562 " fill-opacity="1" fill-rule="evenodd"/><path fill="#9e4d90" d="M 173.949219 321.097656 C 170.972656 320.097656 168.144531 318.75 165.605469 317.066406 C 165.460938 317.433594 165.304688 317.777344 165.125 318.109375 C 159.773438 312.21875 155.632812 306.054688 152.453125 299.9375 C 152.144531 299.347656 151.828125 298.714844 151.539062 298.121094 C 152.238281 294.449219 151.847656 293.945312 156.6875 299.082031 C 160.730469 306.578125 166.320312 314.164062 173.949219 321.097656 Z M 173.949219 321.097656 " fill-opacity="1" fill-rule="evenodd"/><path fill="#9e4d90" d="M 210.023438 318.109375 C 209.851562 317.773438 209.683594 317.425781 209.542969 317.066406 C 206.996094 318.75 204.183594 320.105469 201.199219 321.097656 C 208.777344 314.222656 214.429688 306.515625 218.46875 299.082031 C 221.300781 295.191406 223.261719 292.777344 223.617188 298.121094 C 223.320312 298.707031 223.003906 299.347656 222.699219 299.9375 C 219.511719 306.054688 215.375 312.21875 210.023438 318.109375 Z M 210.023438 318.109375 " fill-opacity="1" fill-rule="evenodd"/><path fill="#9e4d90" d="M 241.269531 323.953125 C 241.167969 323.75 241.066406 323.535156 240.964844 323.316406 C 238.042969 324.050781 231.121094 325.558594 224.410156 325.226562 C 238.910156 321.164062 251.371094 315.582031 261.746094 309.402344 C 265.65625 308.105469 266.960938 306.175781 269.453125 304.453125 C 270.753906 304.007812 274.710938 304.007812 276.203125 304.65625 C 266.722656 311.75 255.0625 318.570312 241.269531 323.953125 Z M 241.269531 323.953125 " fill-opacity="1" fill-rule="evenodd"/><path fill="#be59ad" d="M 277.777344 303.496094 L 277.761719 303.460938 C 277.601562 303.609375 277.429688 303.753906 277.257812 303.898438 C 276.988281 304.101562 276.707031 304.308594 276.433594 304.519531 C 274.933594 305.5625 273.039062 306.484375 270.851562 307.257812 C 268.207031 308.199219 265.105469 308.933594 261.761719 309.410156 C 302.320312 285.230469 313.664062 250.640625 313.707031 250.5 L 313.972656 249.726562 C 314.535156 249.65625 315.113281 249.621094 315.683594 249.621094 C 316.460938 249.625 317.324219 249.777344 318.242188 250.066406 L 317.644531 251.824219 C 317.585938 251.945312 308.480469 279.769531 277.777344 303.496094 Z M 223.617188 298.121094 C 223.25 297.546875 222.917969 296.949219 222.605469 296.328125 C 221.230469 297.308594 219.851562 298.230469 218.460938 299.082031 C 218.640625 298.742188 218.828125 298.398438 219.007812 298.050781 C 229.765625 277.371094 229.082031 257.441406 228.144531 252.167969 L 227.839844 250.484375 C 228.621094 250.347656 229.398438 250.269531 230.183594 250.269531 C 230.804688 250.269531 231.433594 250.316406 232.054688 250.40625 L 232.242188 251.457031 C 233.207031 256.914062 233.949219 277.046875 223.617188 298.121094 Z M 156.695312 299.082031 C 155.308594 298.222656 153.925781 297.300781 152.546875 296.328125 C 152.246094 296.949219 151.90625 297.554688 151.539062 298.121094 C 141.199219 277.046875 141.941406 256.914062 142.914062 251.464844 L 143.101562 250.410156 C 143.722656 250.324219 144.335938 250.273438 144.960938 250.273438 C 145.75 250.273438 146.535156 250.355469 147.304688 250.492188 L 147.011719 252.175781 C 146.074219 257.449219 145.386719 277.378906 156.144531 298.058594 C 156.328125 298.398438 156.507812 298.742188 156.695312 299.082031 Z M 113.394531 309.410156 C 110.054688 308.925781 106.949219 308.191406 104.308594 307.257812 C 102.128906 306.492188 100.234375 305.570312 98.742188 304.535156 C 98.621094 304.445312 97.746094 303.804688 97.378906 303.496094 C 66.667969 279.777344 57.5625 251.953125 57.519531 251.824219 L 56.914062 250.066406 C 57.835938 249.777344 58.695312 249.625 59.480469 249.621094 C 60.050781 249.621094 60.617188 249.65625 61.1875 249.726562 L 61.457031 250.5 C 61.5 250.640625 72.832031 285.222656 113.394531 309.410156 Z M 113.394531 309.410156 " fill-opacity="1" fill-rule="evenodd"/><path fill="#ffffca" d="M 129.660156 148.523438 C 140.417969 148.523438 150.160156 152.84375 157.214844 159.832031 C 164.265625 166.816406 168.621094 176.46875 168.621094 187.128906 C 168.621094 197.789062 164.265625 207.441406 157.214844 214.425781 C 150.160156 221.40625 140.417969 225.734375 129.660156 225.734375 C 118.902344 225.734375 109.160156 221.414062 102.117188 214.425781 C 95.0625 207.441406 90.703125 197.78125 90.703125 187.128906 C 90.703125 176.46875 95.0625 166.824219 102.117188 159.832031 C 109.167969 152.84375 118.910156 148.523438 129.660156 148.523438 Z M 129.660156 148.523438 " fill-opacity="1" fill-rule="evenodd"/><path fill="#59388e" d="M 129.660156 160.5 C 144.507812 160.5 156.535156 172.421875 156.535156 187.128906 C 156.535156 201.835938 144.5 213.757812 129.660156 213.757812 C 122.300781 213.757812 115.628906 210.824219 110.777344 206.070312 C 110.652344 205.949219 110.4375 205.734375 110.316406 205.609375 C 110.179688 198.105469 109.414062 195.59375 109.414062 188.359375 C 109.414062 185.710938 109.089844 184.109375 103.847656 179.679688 C 103.867188 179.59375 103.957031 179.304688 103.976562 179.226562 C 107.386719 168.378906 117.597656 160.5 129.660156 160.5 Z M 129.660156 160.5 " fill-opacity="1" fill-rule="evenodd"/><path fill="#cbbfdf" d="M 110.316406 205.609375 C 107.140625 202.355469 104.777344 198.171875 103.601562 193.648438 C 105.59375 191.601562 110.976562 190.730469 113.675781 190.140625 C 114.332031 193.5625 116.089844 196.671875 118.671875 199.011719 Z M 110.316406 205.609375 " fill-opacity="1" fill-rule="evenodd"/><path fill="#8c5ed4" d="M 103.601562 193.648438 C 103.066406 191.566406 102.785156 189.375 102.785156 187.128906 C 102.785156 184.550781 103.160156 182.050781 103.855469 179.6875 L 114.433594 181.460938 C 113.761719 183.21875 113.394531 185.132812 113.394531 187.128906 C 113.394531 188.519531 113.566406 189.867188 113.90625 191.148438 Z M 103.601562 193.648438 " fill-opacity="1" fill-rule="evenodd"/><path fill="#000000" d="M 129.660156 170.570312 C 138.890625 170.570312 146.367188 177.980469 146.367188 187.121094 C 146.367188 196.269531 138.882812 203.679688 129.660156 203.679688 C 120.429688 203.679688 112.953125 196.269531 112.953125 187.121094 C 112.953125 177.988281 120.4375 170.570312 129.660156 170.570312 Z M 129.660156 170.570312 " fill-opacity="1" fill-rule="evenodd"/><path fill="#ffffff" d="M 117.855469 169.136719 C 122.574219 169.136719 126.394531 172.917969 126.394531 177.59375 C 126.394531 182.265625 122.574219 186.046875 117.855469 186.046875 C 113.140625 186.046875 109.320312 182.265625 109.320312 177.59375 C 109.320312 172.917969 113.148438 169.136719 117.855469 169.136719 Z M 117.855469 169.136719 " fill-opacity="1" fill-rule="evenodd"/><path fill="#ffffff" d="M 128.941406 183.015625 C 131.167969 183.015625 132.976562 184.808594 132.976562 187.019531 C 132.976562 189.230469 131.167969 191.019531 128.941406 191.019531 C 126.710938 191.019531 124.902344 189.226562 124.902344 187.019531 C 124.894531 184.808594 126.710938 183.015625 128.941406 183.015625 Z M 128.941406 183.015625 " fill-opacity="1" fill-rule="evenodd"/><path fill="#ffffca" d="M 245.457031 148.523438 C 234.699219 148.523438 224.957031 152.84375 217.90625 159.832031 C 210.851562 166.816406 206.5 176.46875 206.5 187.128906 C 206.5 197.789062 210.851562 207.441406 217.90625 214.425781 C 224.957031 221.40625 234.699219 225.734375 245.457031 225.734375 C 256.214844 225.734375 265.957031 221.414062 273.003906 214.425781 C 280.054688 207.441406 284.417969 197.78125 284.417969 187.128906 C 284.417969 176.46875 280.054688 166.824219 273.003906 159.832031 C 265.949219 152.84375 256.214844 148.523438 245.457031 148.523438 Z M 245.457031 148.523438 " fill-opacity="1" fill-rule="evenodd"/><path fill="#59388e" d="M 245.457031 160.5 C 230.609375 160.5 218.582031 172.421875 218.582031 187.128906 C 218.582031 201.835938 230.617188 213.757812 245.457031 213.757812 C 252.957031 213.757812 259.734375 210.71875 264.609375 205.8125 C 264.644531 205.777344 264.765625 205.652344 264.804688 205.617188 C 261.636719 197.074219 263.074219 194.613281 263.074219 187.378906 C 263.074219 184.75 266.960938 183.210938 271.273438 179.6875 C 271.257812 179.628906 271.207031 179.445312 271.183594 179.386719 C 267.832031 168.453125 257.585938 160.5 245.457031 160.5 Z M 245.457031 160.5 " fill-opacity="1" fill-rule="evenodd"/><path fill="#cbbfdf" d="M 264.804688 205.609375 C 267.984375 202.339844 270.355469 198.191406 271.515625 193.648438 C 270.910156 193.042969 269.722656 192.320312 269.792969 191.960938 L 261.449219 190.132812 C 260.867188 193.1875 259.417969 195.929688 257.363281 198.113281 L 257.203125 198.277344 C 256.957031 198.53125 256.714844 198.769531 256.453125 199.007812 Z M 264.804688 205.609375 " fill-opacity="1" fill-rule="evenodd"/><path fill="#8c5ed4" d="M 271.515625 193.648438 C 272.050781 191.566406 272.332031 189.375 272.332031 187.128906 C 272.332031 184.550781 271.957031 182.050781 271.265625 179.6875 L 260.695312 181.460938 C 261.355469 183.21875 261.726562 185.132812 261.726562 187.128906 C 261.726562 188.519531 261.550781 189.867188 261.210938 191.148438 Z M 271.515625 193.648438 " fill-opacity="1" fill-rule="evenodd"/><path fill="#000000" d="M 245.457031 170.570312 C 236.226562 170.570312 228.75 177.980469 228.75 187.121094 C 228.75 196.269531 236.234375 203.679688 245.457031 203.679688 C 254.6875 203.679688 262.164062 196.269531 262.164062 187.121094 C 262.164062 177.988281 254.679688 170.570312 245.457031 170.570312 Z M 245.457031 170.570312 " fill-opacity="1" fill-rule="evenodd"/><path fill="#ffffff" d="M 257.261719 169.136719 C 252.546875 169.136719 248.722656 172.917969 248.722656 177.59375 C 248.722656 182.265625 252.546875 186.046875 257.261719 186.046875 C 261.976562 186.046875 265.796875 182.265625 265.796875 177.59375 C 265.796875 172.917969 261.96875 169.136719 257.261719 169.136719 Z M 257.261719 169.136719 " fill-opacity="1" fill-rule="evenodd"/><path fill="#ffffff" d="M 246.179688 183.015625 C 243.949219 183.015625 242.140625 184.808594 242.140625 187.019531 C 242.140625 189.230469 243.949219 191.019531 246.179688 191.019531 C 248.414062 191.019531 250.214844 189.226562 250.214844 187.019531 C 250.222656 184.808594 248.414062 183.015625 246.179688 183.015625 Z M 246.179688 183.015625 " fill-opacity="1" fill-rule="evenodd"/><g clip-path="url(#6d217bd870)"><path fill="#48a8a7" d="M 359.457031 124.003906 C 360.871094 124.660156 362.515625 125.414062 363.949219 126.070312 L 364.808594 126.460938 L 365.074219 127.347656 C 366.351562 131.546875 367.9375 137.863281 367.835938 143.226562 C 367.714844 149.386719 365.523438 154.304688 358.816406 154.363281 L 356.394531 153.375 C 345.066406 147.636719 334.617188 129.210938 322.28125 123.636719 C 302.773438 114.835938 287.90625 149.226562 273.449219 149.121094 C 264.242188 149.054688 250.265625 129.628906 240.640625 123.84375 C 218.195312 110.347656 203.835938 145.390625 187.765625 146.09375 C 179.25 146.46875 165.324219 128.273438 155.996094 123.269531 C 134.296875 111.636719 121.648438 141.238281 106.054688 147.996094 C 97.132812 151.863281 89.46875 142.578125 80.882812 134.261719 C 73.765625 127.351562 65.566406 121.375 59.445312 121.707031 C 51.28125 122.152344 44.914062 129.570312 36.347656 138.335938 C 30.941406 143.867188 24.773438 150.589844 16.34375 154.371094 C 9.625 154.320312 7.433594 149.386719 7.316406 143.234375 C 7.214844 137.871094 8.804688 131.550781 10.078125 127.351562 L 10.367188 126.460938 L 11.203125 126.078125 C 12.640625 125.421875 14.285156 124.667969 15.703125 124.011719 L 19.042969 122.46875 C 25.25 119.53125 31.710938 114.113281 37.78125 109.023438 C 45.800781 102.300781 53.191406 96.113281 59.480469 96.085938 C 67.535156 96.058594 74.933594 103.527344 82.324219 110.996094 C 89.027344 117.78125 95.734375 124.558594 101.949219 124.636719 C 108.214844 124.71875 115.109375 118.011719 122.019531 111.296875 C 129.503906 104.023438 137 96.734375 144.96875 96.734375 C 152.953125 96.734375 160.320312 104.023438 167.699219 111.320312 C 173.863281 117.414062 180.019531 123.5 185.804688 124.542969 C 186.984375 124.753906 188.234375 124.753906 189.417969 124.53125 C 195.191406 123.472656 201.335938 117.390625 207.484375 111.320312 C 214.855469 104.023438 222.226562 96.734375 230.207031 96.734375 C 238.183594 96.734375 245.671875 104.023438 253.164062 111.296875 C 260.066406 118.003906 266.96875 124.710938 273.234375 124.636719 C 279.441406 124.558594 286.15625 117.78125 292.859375 110.996094 C 300.242188 103.527344 307.636719 96.058594 315.695312 96.085938 C 321.992188 96.113281 329.367188 102.300781 337.394531 109.023438 C 343.472656 114.113281 349.933594 119.523438 356.140625 122.46875 Z M 359.457031 124.003906 " fill-opacity="1" fill-rule="evenodd"/></g><path fill="#48a8a7" d="M 343.5 274.375 C 338.957031 269.902344 333.3125 264.515625 328.011719 260.25 C 322.972656 256.203125 318.355469 253.214844 315.660156 253.199219 C 309.351562 253.179688 302.574219 260.035156 295.796875 266.882812 C 288.492188 274.265625 281.195312 281.648438 273.261719 281.75 C 265.273438 281.851562 257.757812 274.554688 250.230469 267.238281 C 243.359375 260.554688 236.480469 253.863281 230.191406 253.863281 C 223.917969 253.863281 217.15625 260.554688 210.398438 267.238281 C 203 274.546875 195.609375 281.859375 187.589844 281.808594 L 187.5625 281.808594 C 179.542969 281.859375 172.152344 274.546875 164.761719 267.238281 C 158 260.554688 151.234375 253.863281 144.960938 253.863281 C 138.683594 253.863281 131.796875 260.554688 124.921875 267.238281 C 117.402344 274.546875 109.898438 281.851562 101.898438 281.75 C 93.960938 281.65625 86.664062 274.273438 79.359375 266.882812 C 72.582031 260.035156 65.796875 253.179688 59.492188 253.199219 C 56.789062 253.214844 52.183594 256.203125 47.140625 260.25 C 41.847656 264.507812 36.195312 269.894531 31.652344 274.375 L 29.722656 276.277344 L 28.367188 273.90625 C 18.148438 255.332031 18.746094 254.792969 27.941406 246.585938 C 29.324219 245.347656 30.941406 243.90625 32.671875 242.238281 C 33.894531 241.046875 35.109375 239.839844 36.332031 238.628906 C 42.210938 232.785156 48.109375 226.9375 54.222656 224.625 C 61.535156 225.355469 63.285156 225.050781 69.460938 230.070312 C 79.410156 238.160156 91.25 259.148438 104.871094 256.503906 C 119.566406 253.644531 135.089844 226.679688 146.910156 230.941406 C 162.824219 236.683594 172.277344 257.707031 186.632812 258.441406 C 191.125 258.671875 194.917969 257.789062 202.207031 252.34375 C 209.953125 246.566406 221.929688 230.136719 230.414062 229.976562 C 244.945312 229.703125 261.054688 263.382812 280.269531 254.511719 C 292.519531 248.855469 303.734375 225.578125 315.546875 224.863281 C 316.128906 224.828125 320.398438 224.589844 320.910156 224.632812 C 327.03125 226.945312 332.921875 232.792969 338.808594 238.636719 C 340.023438 239.84375 341.242188 241.054688 342.46875 242.242188 C 344.199219 243.90625 345.808594 245.355469 347.199219 246.59375 C 356.394531 254.796875 356.992188 255.339844 346.773438 273.914062 L 345.433594 276.261719 Z M 343.5 274.375 " fill-opacity="1" fill-rule="evenodd"/><path fill="#3a9998" d="M 358.816406 154.371094 L 356.285156 153.558594 C 343.949219 148.898438 334.226562 130.609375 321.890625 125.035156 C 302.386719 116.230469 287.675781 151.246094 273.21875 151.136719 C 264.011719 151.066406 249.796875 131.558594 240.179688 125.78125 C 217.730469 112.285156 203.6875 147.175781 187.613281 147.875 C 179.097656 148.25 164.230469 130.363281 154.914062 125.367188 C 133.214844 113.726562 121.578125 143.414062 105.988281 150.171875 C 97.941406 153.65625 90.558594 145.605469 85.335938 140.597656 L 84.347656 139.65625 C 84.023438 139.347656 83.707031 139.035156 83.390625 138.734375 C 83.074219 138.429688 82.753906 138.136719 82.445312 137.839844 C 82.136719 137.539062 81.824219 137.257812 81.523438 136.96875 C 81.21875 136.679688 80.917969 136.398438 80.621094 136.117188 C 80.320312 135.84375 80.03125 135.570312 79.742188 135.296875 C 79.453125 135.03125 79.164062 134.757812 78.875 134.5 C 78.59375 134.238281 78.3125 133.980469 78.039062 133.726562 C 77.757812 133.476562 77.484375 133.222656 77.210938 132.984375 C 76.945312 132.742188 76.671875 132.503906 76.402344 132.257812 C 76.136719 132.027344 75.875 131.789062 75.609375 131.566406 C 75.34375 131.335938 75.089844 131.121094 74.832031 130.898438 C 74.570312 130.679688 74.320312 130.464844 74.066406 130.257812 C 73.816406 130.046875 73.5625 129.84375 73.316406 129.644531 C 73.070312 129.441406 72.828125 129.242188 72.582031 129.054688 C 72.34375 128.859375 72.097656 128.679688 71.851562 128.5 C 71.617188 128.3125 71.378906 128.136719 71.148438 127.964844 C 70.910156 127.792969 70.671875 127.625 70.441406 127.460938 C 70.210938 127.296875 69.976562 127.136719 69.746094 126.980469 C 69.515625 126.820312 69.292969 126.675781 69.0625 126.53125 C 68.832031 126.386719 68.617188 126.25 68.390625 126.113281 C 68.167969 125.984375 67.945312 125.847656 67.730469 125.726562 C 67.503906 125.601562 67.28125 125.480469 67.074219 125.367188 C 66.847656 125.25 66.632812 125.132812 66.417969 125.035156 C 66.199219 124.925781 65.984375 124.824219 65.765625 124.730469 C 65.550781 124.636719 65.335938 124.542969 65.117188 124.464844 C 64.910156 124.378906 64.691406 124.300781 64.484375 124.226562 C 64.265625 124.148438 64.058594 124.082031 63.847656 124.019531 C 63.640625 123.953125 63.425781 123.894531 63.214844 123.839844 C 63.003906 123.789062 62.796875 123.730469 62.585938 123.6875 C 62.378906 123.636719 62.167969 123.601562 61.960938 123.566406 C 61.75 123.535156 61.542969 123.507812 61.332031 123.476562 C 61.125 123.457031 60.914062 123.433594 60.707031 123.425781 C 60.488281 123.414062 60.28125 123.414062 60.070312 123.40625 C 59.863281 123.40625 59.652344 123.414062 59.4375 123.421875 C 59.226562 123.433594 59.019531 123.441406 58.800781 123.464844 C 58.59375 123.484375 58.375 123.515625 58.160156 123.542969 C 57.949219 123.570312 57.734375 123.609375 57.519531 123.652344 C 57.300781 123.695312 57.085938 123.738281 56.871094 123.796875 C 56.644531 123.84375 56.429688 123.910156 56.214844 123.96875 C 55.996094 124.03125 55.773438 124.105469 55.558594 124.183594 C 55.332031 124.257812 55.109375 124.34375 54.886719 124.421875 C 54.664062 124.507812 54.4375 124.601562 54.207031 124.703125 C 53.976562 124.796875 53.753906 124.902344 53.523438 125.011719 C 53.292969 125.128906 53.0625 125.242188 52.832031 125.359375 C 52.601562 125.480469 52.363281 125.609375 52.125 125.738281 C 51.894531 125.875 51.648438 126.011719 51.410156 126.15625 C 51.171875 126.308594 50.929688 126.460938 50.683594 126.609375 C 50.4375 126.769531 50.191406 126.933594 49.945312 127.101562 C 49.695312 127.265625 49.441406 127.445312 49.191406 127.625 C 48.9375 127.808594 48.679688 128 48.425781 128.1875 C 48.167969 128.382812 47.90625 128.585938 47.640625 128.785156 C 47.371094 128.996094 47.113281 129.203125 46.839844 129.425781 C 46.574219 129.644531 46.296875 129.875 46.023438 130.097656 C 45.75 130.328125 45.476562 130.566406 45.1875 130.808594 C 44.914062 131.054688 44.632812 131.300781 44.34375 131.558594 C 44.054688 131.820312 43.769531 132.078125 43.472656 132.351562 C 43.175781 132.617188 42.886719 132.898438 42.585938 133.179688 C 42.28125 133.460938 41.988281 133.75 41.675781 134.042969 C 41.375 134.339844 41.054688 134.636719 40.746094 134.953125 C 40.4375 135.253906 40.117188 135.570312 39.800781 135.894531 C 39.476562 136.21875 39.152344 136.542969 38.820312 136.875 C 38.496094 137.214844 38.164062 137.546875 37.832031 137.890625 C 37.496094 138.238281 37.15625 138.589844 36.816406 138.949219 C 30.183594 145.90625 25.75 151.367188 16.359375 154.386719 C 26.101562 149.191406 28.574219 145.238281 35.597656 136.945312 C 55.039062 114 62.730469 113.660156 84.515625 134.175781 C 88.214844 137.660156 97.515625 147.519531 103.269531 145.957031 C 117.582031 142.070312 131.476562 105.9375 156.953125 120.429688 C 166.292969 125.746094 178.339844 140.664062 185.585938 143.394531 C 191.617188 145.664062 202.128906 133.683594 205.984375 130.105469 C 227.566406 110.082031 237.28125 113.941406 256.511719 133.519531 C 259.964844 137.035156 268.863281 147.117188 274.457031 146.074219 C 288.367188 143.472656 304.210938 108.121094 325.941406 123.210938 C 337.480469 131.222656 344.265625 146.453125 356.429688 153.101562 Z M 358.816406 154.371094 " fill-opacity="1" fill-rule="evenodd"/><path fill="#3a9998" d="M 54.230469 224.632812 C 61.65625 224.164062 63.605469 223.976562 69.785156 229 C 79.734375 237.085938 91.496094 256.765625 105.117188 254.105469 C 119.8125 251.246094 134.707031 224.648438 146.921875 227.621094 C 156.613281 229.984375 167.097656 246.960938 178.6875 253.421875 C 186.691406 257.882812 193.539062 255.9375 200.433594 250.800781 C 208.179688 245.023438 221.71875 227.515625 230.199219 227.355469 C 244.730469 227.074219 260.210938 261.691406 279.433594 252.808594 C 291.683594 247.15625 303.871094 225 315.6875 224.28125 C 316.265625 224.246094 320.425781 224.582031 320.9375 224.625 C 311.890625 225.203125 307.417969 229.589844 299.644531 238.773438 C 284.472656 256.691406 275.582031 268.441406 253.203125 249.714844 C 248.296875 245.609375 235.140625 231.664062 229.140625 233.457031 C 222.878906 235.328125 209.820312 251.339844 203.144531 256.441406 C 199.011719 259.589844 196.511719 260.957031 192.871094 261.785156 C 188.722656 262.734375 187.160156 262.585938 183.070312 262.085938 C 177.757812 260.863281 173.027344 257.449219 169.011719 253.914062 C 163.761719 249.273438 150.722656 233.671875 144.976562 233.234375 C 139.058594 232.785156 124.597656 247.824219 119.011719 252.125 C 95.109375 270.523438 85.453125 248.65625 71.089844 233.472656 C 63.640625 225.632812 61.136719 225.886719 54.230469 224.632812 Z M 54.230469 224.632812 " fill-opacity="1" fill-rule="evenodd"/></svg>